<svg xmlns="http://www.w3.org/2000/svg" version="1.1" xmlns:xlink="http://www.w3.org/1999/xlink" width="512" height="512" x="0" y="0" viewBox="0 0 520 520" style="enable-background:new 0 0 512 512" xml:space="preserve" class=""><g><path fill="#ffffff" d="M440 55c13.81 0 25 11.19 25 25s-11.19 25-25 25c-13.811 0-25-11.19-25-25s11.189-25 25-25z" opacity="1" data-original="#ffffff"></path><circle cx="85" cy="445" r="35" fill="#ffffff" opacity="1" data-original="#ffffff"></circle><path fill="#116932" d="M260 75c102.17 0 185 82.83 185 185s-82.83 185-185 185S75 362.17 75 260 157.83 75 260 75z" opacity="1" data-original="#9bc9ff" class=""></path><path fill="#ffffff" d="M260 125c74.56 0 135 60.44 135 135s-60.44 135-135 135-135-60.44-135-135 60.44-135 135-135z" opacity="1" data-original="#ffffff"></path><path fill="#116932" d="M274.141 165.86C277.76 169.48 280 174.48 280 180s-2.24 10.52-5.859 14.14C270.52 197.76 265.52 200 260 200s-10.52-2.24-14.14-5.86S240 185.52 240 180c0-11.05 8.95-20 20-20 5.52 0 10.52 2.24 14.141 5.86zM280 240v95c0 11.05-8.95 20-20 20s-20-8.95-20-20v-95c0-11.05 8.95-20 20-20 5.52 0 10.52 2.24 14.141 5.86A19.94 19.94 0 0 1 280 240z" opacity="1" data-original="#9bc9ff" class=""></path><g fill="#1e81ce"><circle cx="467.5" cy="147.5" r="7.5" fill="#116932" opacity="1" data-original="#1e81ce" class=""></circle><circle cx="467.5" cy="357.5" r="7.5" fill="#116932" opacity="1" data-original="#1e81ce" class=""></circle><circle cx="402.5" cy="447.5" r="7.5" fill="#116932" opacity="1" data-original="#1e81ce" class=""></circle><circle cx="182.5" cy="467.5" r="7.5" fill="#116932" opacity="1" data-original="#1e81ce" class=""></circle><circle cx="142.5" cy="42.5" r="7.5" fill="#116932" opacity="1" data-original="#1e81ce" class=""></circle><circle cx="57.5" cy="357.5" r="7.5" fill="#116932" opacity="1" data-original="#1e81ce" class=""></circle><circle cx="52.5" cy="132.5" r="7.5" fill="#116932" opacity="1" data-original="#1e81ce" class=""></circle><path d="M260 450c-104.766 0-190-85.233-190-190 0-104.766 85.234-190 190-190s190 85.234 190 190c0 104.767-85.234 190-190 190zm0-370c-99.252 0-180 80.748-180 180s80.748 180 180 180 180-80.748 180-180S359.252 80 260 80z" fill="#116932" opacity="1" data-original="#1e81ce" class=""></path><path d="M260 400c-77.196 0-140-62.804-140-140s62.804-140 140-140 140 62.804 140 140-62.804 140-140 140zm0-270c-71.682 0-130 58.318-130 130 0 71.683 58.318 130 130 130s130-58.317 130-130c0-71.682-58.318-130-130-130z" fill="#116932" opacity="1" data-original="#1e81ce" class=""></path><path d="M327.17 332.17a5 5 0 0 1-3.535-8.536c17.004-16.994 26.367-39.594 26.367-63.635 0-24.042-9.363-46.644-26.367-63.643a5 5 0 0 1 7.07-7.072c18.893 18.888 29.297 44.001 29.297 70.715s-10.404 51.824-29.297 70.707a4.986 4.986 0 0 1-3.535 1.464zM192.82 332.17a4.984 4.984 0 0 1-3.536-1.465c-38.984-38.984-38.985-102.425-.001-141.42a5 5 0 1 1 7.072 7.07c-35.087 35.096-35.087 92.193-.001 127.28a4.998 4.998 0 0 1 0 7.07 4.976 4.976 0 0 1-3.534 1.465zM260 360c-13.785 0-25-11.215-25-25v-95c0-13.785 11.215-25 25-25 6.674 0 12.951 2.601 17.676 7.324C282.398 227.048 285 233.326 285 240v95c0 13.785-11.215 25-25 25zm0-135c-8.271 0-15 6.729-15 15v95c0 8.272 6.729 15 15 15s15-6.728 15-15v-95a14.9 14.9 0 0 0-4.396-10.605A14.9 14.9 0 0 0 260 225zM260 205c-6.674 0-12.952-2.601-17.675-7.324C237.601 192.952 235 186.674 235 180c0-13.785 11.215-25 25-25 6.674 0 12.951 2.601 17.676 7.324C282.398 167.048 285 173.326 285 180s-2.602 12.952-7.324 17.675C272.951 202.399 266.674 205 260 205zm0-40c-8.271 0-15 6.729-15 15 0 4.004 1.561 7.77 4.395 10.605C252.23 193.439 255.996 195 260 195s7.77-1.561 10.605-4.395C273.439 187.77 275 184.004 275 180s-1.561-7.77-4.396-10.605A14.9 14.9 0 0 0 260 165zM440 110c-16.542 0-30-13.458-30-30s13.458-30 30-30 30 13.458 30 30-13.458 30-30 30zm0-50c-11.027 0-20 8.972-20 20s8.973 20 20 20 20-8.972 20-20-8.973-20-20-20zM85 485c-22.056 0-40-17.944-40-40s17.944-40 40-40 40 17.944 40 40-17.944 40-40 40zm0-70c-16.542 0-30 13.458-30 30s13.458 30 30 30 30-13.458 30-30-13.458-30-30-30z" fill="#116932" opacity="1" data-original="#1e81ce" class=""></path></g></g></svg>