<svg xmlns="http://www.w3.org/2000/svg" version="1.1" xmlns:xlink="http://www.w3.org/1999/xlink" width="512" height="512" x="0" y="0" viewBox="0 0 512 512" style="enable-background:new 0 0 512 512" xml:space="preserve" class=""><g><path d="M256 306.477V143.5M437.359 185.985v60.247H74.641v-60.247" style="stroke-width:22;stroke-linejoin:round;stroke-miterlimit:10;" fill="none" stroke="#116932" stroke-width="22" stroke-linejoin="round" stroke-miterlimit="10" data-original="#33cccc" opacity="1"></path><circle cx="256" cy="41.126" r="30.126" style="stroke-width:22;stroke-linejoin:round;stroke-miterlimit:10;" fill="none" stroke="#000000" stroke-width="22" stroke-linejoin="round" stroke-miterlimit="10" data-original="#000000" class=""></circle><path d="M319.641 143.501H192.359v-8.608c0-35.148 28.493-63.641 63.641-63.641s63.641 28.493 63.641 63.641v8.608z" style="stroke-width:22;stroke-linejoin:round;stroke-miterlimit:10;" fill="none" stroke="#000000" stroke-width="22" stroke-linejoin="round" stroke-miterlimit="10" data-original="#000000" class=""></path><circle cx="74.641" cy="83.61" r="30.126" style="stroke-width:22;stroke-linejoin:round;stroke-miterlimit:10;" fill="none" stroke="#000000" stroke-width="22" stroke-linejoin="round" stroke-miterlimit="10" data-original="#000000" class=""></circle><path d="M138.282 185.985H11v-8.608c0-35.148 28.493-63.641 63.641-63.641s63.641 28.493 63.641 63.641v8.608z" style="stroke-width:22;stroke-linejoin:round;stroke-miterlimit:10;" fill="none" stroke="#000000" stroke-width="22" stroke-linejoin="round" stroke-miterlimit="10" data-original="#000000" class=""></path><circle cx="437.359" cy="83.61" r="30.126" style="stroke-width:22;stroke-linejoin:round;stroke-miterlimit:10;" fill="none" stroke="#000000" stroke-width="22" stroke-linejoin="round" stroke-miterlimit="10" data-original="#000000" class=""></circle><path d="M501 185.985H373.718v-8.608c0-35.148 28.493-63.641 63.641-63.641S501 142.229 501 177.378v8.607z" style="stroke-width:22;stroke-linejoin:round;stroke-miterlimit:10;" fill="none" stroke="#000000" stroke-width="22" stroke-linejoin="round" stroke-miterlimit="10" data-original="#000000" class=""></path><path d="M229.165 376.903c0-14.821 12.014-26.835 26.835-26.835s26.835 12.014 26.835 26.835-12.014 26.835-26.835 26.835v19.664M256 457.403h0" style="stroke-width:22;stroke-linecap:round;stroke-linejoin:round;stroke-miterlimit:10;" fill="none" stroke="#000000" stroke-width="22" stroke-linecap="round" stroke-linejoin="round" stroke-miterlimit="10" data-original="#000000" class=""></path><circle cx="256" cy="403.738" r="97.262" style="stroke-width:22;stroke-linecap:round;stroke-linejoin:round;stroke-miterlimit:10;" fill="none" stroke="#000000" stroke-width="22" stroke-linecap="round" stroke-linejoin="round" stroke-miterlimit="10" data-original="#000000" class=""></circle></g></svg>