<svg xmlns="http://www.w3.org/2000/svg" version="1.1" xmlns:xlink="http://www.w3.org/1999/xlink" width="512" height="512" x="0" y="0" viewBox="0 0 510 510" style="enable-background:new 0 0 512 512" xml:space="preserve" fill-rule="evenodd" class=""><g><path d="m8.505 282.72.001-.071a6.967 6.967 0 0 1 1.637-4.429 7.012 7.012 0 0 1 2.292-1.793l102.295-52.662a7.001 7.001 0 0 1 3.204-.777h131.342c-10.065-18.638-16.154-39.07-16.154-60.441V51.429a7 7 0 0 1 6.447-6.978c34.181-2.709 63.911-17.725 86.41-33.793a6.998 6.998 0 0 1 4.068-1.304h74.523a7 7 0 0 1 4.068 1.304c22.499 16.068 52.229 31.084 86.41 33.793a7 7 0 0 1 6.447 6.978v111.118c0 37.659-18.907 72.403-45.163 99.554a206.541 206.541 0 0 1-7.234 7.119v171.694a7 7 0 0 1-3.796 6.224l-102.306 52.669a6.977 6.977 0 0 1-3.327.839H15.506a7 7 0 0 1-7-7V388.183zm249.284-45.732H119.63L44.396 275.72h248.387a210.553 210.553 0 0 1-14.496-13.619c-7.527-7.784-14.451-16.191-20.498-25.113zm177.309 44.263c-21.393 16.854-45.009 28.973-65.967 34.596a7.014 7.014 0 0 1-3.627 0c-6.094-1.635-12.412-3.818-18.835-6.506v67.365l88.429-45.524zm-102.429 21.507a209.357 209.357 0 0 1-21.64-13.038H22.506v91.463h310.163zm14 179.411 88.429-45.524v-89.717l-88.429 45.524zM22.506 395.183v91.463h310.163v-91.463zM247.122 57.759v104.788c0 34.046 17.49 65.276 41.229 89.821 23.499 24.298 53.205 42.102 78.966 49.454 25.753-7.352 55.454-25.156 78.951-49.454 23.737-24.545 41.227-55.775 41.227-89.821V57.759c-33.326-4.056-62.512-18.561-85.15-34.405h-70.073c-22.639 15.844-51.825 30.349-85.15 34.405zm118.104 227.356c-29.392-9.199-60.808-31.633-81.214-59.73-13.91-19.153-22.69-40.911-22.69-62.856V76.075a7 7 0 0 1 5.745-6.886c24.316-4.431 47.181-14.839 67.656-28.721a6.997 6.997 0 0 1 3.928-1.206h57.316c1.401 0 2.769.42 3.929 1.206 20.475 13.882 43.355 24.29 67.671 28.721a7 7 0 0 1 5.745 6.886v86.454c0 21.951-8.78 43.711-22.69 62.863-20.406 28.096-51.822 50.524-81.214 59.723a7.002 7.002 0 0 1-4.182 0zm2.091-14.039c26.214-8.788 53.836-28.932 71.978-53.911 12.11-16.675 20.017-35.524 20.017-54.636v-80.72c-23.388-5.129-45.482-15.265-65.476-28.547h-53.054c-19.993 13.282-42.074 23.418-65.46 28.546v80.721c0 19.106 7.907 37.954 20.017 54.629 18.142 24.98 45.764 45.13 71.978 53.918zm49.084-146.544c2.999-2.436 7.411-1.979 9.847 1.02s1.978 7.411-1.021 9.847l-79.067 64.216a7.002 7.002 0 0 1-10.224-1.532l-27.943-41.616a7.002 7.002 0 0 1 1.909-9.713 7.003 7.003 0 0 1 9.714 1.909l23.669 35.251zM52.003 342.451c-3.863 0-7-3.136-7-7 0-3.863 3.137-7 7-7h41.696c3.863 0 7 3.137 7 7 0 3.864-3.137 7-7 7zm179.362-16.362c5.168 0 9.363 4.195 9.363 9.362s-4.195 9.363-9.363 9.363c-5.167 0-9.362-4.196-9.362-9.363s4.195-9.362 9.362-9.362zm60.789-13.474c12.604 0 22.837 10.232 22.837 22.836s-10.233 22.837-22.837 22.837-22.837-10.233-22.837-22.837 10.233-22.836 22.837-22.836zm0 14c-4.877 0-8.837 3.959-8.837 8.836s3.96 8.837 8.837 8.837 8.837-3.96 8.837-8.837-3.96-8.836-8.837-8.836zm-153.372 15.836c-3.863 0-7-3.136-7-7 0-3.863 3.137-7 7-7h47.632c3.863 0 7 3.137 7 7 0 3.864-3.137 7-7 7zm92.583 89.101c5.168 0 9.363 4.195 9.363 9.362 0 5.168-4.195 9.363-9.363 9.363-5.167 0-9.362-4.195-9.362-9.363 0-5.167 4.195-9.362 9.362-9.362zM52.003 447.914c-3.863 0-7-3.136-7-7 0-3.863 3.137-7 7-7h41.696c3.863 0 7 3.137 7 7 0 3.864-3.137 7-7 7zm240.151-29.836c12.604 0 22.837 10.232 22.837 22.836s-10.233 22.837-22.837 22.837-22.837-10.233-22.837-22.837 10.233-22.836 22.837-22.836zm0 14c-4.877 0-8.837 3.959-8.837 8.836s3.96 8.837 8.837 8.837 8.837-3.96 8.837-8.837-3.96-8.836-8.837-8.836zm-153.372 15.836c-3.863 0-7-3.136-7-7 0-3.863 3.137-7 7-7h47.632c3.863 0 7 3.137 7 7 0 3.864-3.137 7-7 7z" fill="#116932" opacity="1" data-original="#000000" class=""></path></g></svg>